<svg id="icons" enable-background="new 0 0 64 64" height="512" viewBox="0 0 64 64" width="512" xmlns="http://www.w3.org/2000/svg"><path d="m50 41.5v.01c-3.32 0-6-2.689-6-6.01v-.01c0-6.521-5.2-11.83-11.69-11.99h-.62c-6.49.16-11.69 5.47-11.69 11.99v.01c0 3.32-2.68 6.01-6 6.01v-.01c-3.32 0-6 2.68-6 6v4h48v-4c0-3.32-2.68-6-6-6z" fill="#da4453"/><path d="m63 23.5v4c0 1.1-.9 2-2 2h-12c-1.1 0-2-.9-2-2v-4c0-1.1.9-2 2-2h12c1.1 0 2 .9 2 2z" fill="#656d78"/><path d="m17 23.5v4c0 1.1-.9 2-2 2h-12c-1.1 0-2-.9-2-2v-4c0-1.1.9-2 2-2h12c1.1 0 2 .9 2 2z" fill="#656d78"/><path d="m61 20.5v1h-12v-1c0-1.66-1.34-3-3-3h-2.25c.16-.64.25-1.31.25-2h-3c0 .71-.15 1.39-.42 2h-17.16c-.27-.61-.42-1.29-.42-2h-3c0 .69.09 1.36.25 2h-2.25c-1.66 0-3 1.34-3 3v1h-12v-1c0-8.29 6.71-15 15-15h28c8.29 0 15 6.71 15 15z" fill="#545c66"/><path d="m43.75 17.5c-.89 3.45-4.02 6-7.75 6h-3.69c-.1-.01-.21-.01-.31-.01s-.21 0-.31.01h-3.69c-3.73 0-6.86-2.55-7.75-6-.16-.64-.25-1.31-.25-2h3c0 .71.15 1.39.42 2 .771 1.76 2.53 3 4.58 3h8c2.05 0 3.81-1.24 4.58-3 .27-.61.42-1.29.42-2h3c0 .69-.09 1.36-.25 2z" fill="#656d78"/><path d="m36 28.57c3.82 2.21 5.14 7.1 2.93 10.93-2.21 3.82-7.109 5.13-10.93 2.93-3.82-2.21-5.14-7.109-2.93-10.93s7.1-5.14 10.93-2.93z" fill="#e6e9ed"/><path d="m58 53.5v3c0 1.1-.9 2-2 2h-48c-1.1 0-2-.9-2-2v-3c0-1.1.9-2 2-2h48c1.1 0 2 .9 2 2z" fill="#ed5565"/><path d="m15 30.498h-12c-1.654 0-3-1.346-3-3v-4.001c0-1.654 1.346-3 3-3h12c1.654 0 3 1.346 3 3v4.001c0 1.654-1.346 3-3 3zm-12-8.001c-.552 0-1 .448-1 1v4.001c0 .552.448 1 1 1h12c.552 0 1-.448 1-1v-4.001c0-.552-.448-1-1-1z"/><path d="m61 30.498h-12c-1.654 0-3-1.346-3-3v-4.001c0-1.654 1.346-3 3-3h12c1.654 0 3 1.346 3 3v4.001c0 1.654-1.346 3-3 3zm-12-8.001c-.552 0-1 .448-1 1v4.001c0 .552.448 1 1 1h12c.552 0 1-.448 1-1v-4.001c0-.552-.448-1-1-1z"/><path d="m3 21.499c-.553 0-1-.447-1-1 0-8.822 7.178-16 16-16 .553 0 1 .447 1 1s-.447 1-1 1c-7.72 0-14 6.28-14 14 0 .553-.447 1-1 1z"/><path d="m15 21.499c-.553 0-1-.447-1-1 0-2.206 1.794-4 4-4 .553 0 1 .447 1 1s-.447 1-1 1c-1.103 0-2 .897-2 2 0 .553-.447 1-1 1z"/><path d="m60.999 21.499c-.553 0-1-.447-1-1 0-7.72-6.28-14-14-14-.553 0-1-.447-1-1s.447-1 1-1c8.822 0 16 7.178 16 16 0 .553-.447 1-1 1z"/><path d="m48.999 21.499c-.553 0-1-.447-1-1 0-1.103-.897-2-2-2-.553 0-1-.447-1-1s.447-1 1-1c2.206 0 4 1.794 4 4 0 .553-.447 1-1 1z"/><path d="m45.999 6.499h-27.999c-.553 0-1-.447-1-1s.447-1 1-1h27.999c.553 0 1 .447 1 1s-.447 1-1 1z"/><path d="m20.255 18.499h-2.255c-.553 0-1-.447-1-1s.447-1 1-1h2.255c.553 0 1 .447 1 1s-.447 1-1 1z"/><path d="m3 22.497c-.553 0-1-.447-1-1v-.998c0-.553.447-1 1-1s1 .447 1 1v.998c0 .553-.447 1-1 1z"/><path d="m15 22.497c-.553 0-1-.447-1-1v-.998c0-.553.447-1 1-1s1 .447 1 1v.998c0 .553-.447 1-1 1z"/><path d="m49 22.497c-.553 0-1-.447-1-1v-.998c0-.553.447-1 1-1s1 .447 1 1v.998c0 .553-.447 1-1 1z"/><path d="m61 22.497c-.553 0-1-.447-1-1v-.998c0-.553.447-1 1-1s1 .447 1 1v.998c0 .553-.447 1-1 1z"/><path d="m28.002 24.5c-4.963 0-9-4.037-9-9 0-.553.447-1 1-1s1 .447 1 1c0 3.859 3.141 7 7 7 .553 0 1 .447 1 1s-.447 1-1 1z"/><path d="m28.002 21.5c-3.309 0-6-2.691-6-6 0-.553.447-1 1-1s1 .447 1 1c0 2.206 1.794 4 4 4 .553 0 1 .447 1 1s-.447 1-1 1z"/><path d="m35.998 24.5c-.553 0-1-.447-1-1s.447-1 1-1c3.859 0 7-3.141 7-7 0-.553.447-1 1-1s1 .447 1 1c0 4.963-4.037 9-9 9z"/><path d="m35.998 21.499c-.553 0-1-.447-1-1s.447-1 1-1c2.205 0 3.999-1.794 3.999-3.999 0-.553.447-1 1-1s1 .447 1 1c0 3.308-2.691 5.999-5.999 5.999z"/><path d="m23.002 16.5h-3c-.553 0-1-.447-1-1s.447-1 1-1h3c.553 0 1 .447 1 1s-.447 1-1 1z"/><path d="m43.998 16.5h-3.001c-.553 0-1-.447-1-1s.447-1 1-1h3.001c.553 0 1 .447 1 1s-.447 1-1 1z"/><path d="m35.998 21.499h-7.996c-.553 0-1-.447-1-1s.447-1 1-1h7.996c.553 0 1 .447 1 1s-.447 1-1 1z"/><path d="m35.998 24.5h-7.996c-.553 0-1-.447-1-1s.447-1 1-1h7.996c.553 0 1 .447 1 1s-.447 1-1 1z"/><path d="m40.581 18.499h-17.163c-.553 0-1-.447-1-1s.447-1 1-1h17.163c.553 0 1 .447 1 1s-.447 1-1 1z"/><path d="m45.999 18.499h-2.254c-.553 0-1-.447-1-1s.447-1 1-1h2.254c.553 0 1 .447 1 1s-.447 1-1 1z"/><path d="m56 59.501h-48c-1.654 0-3-1.346-3-3v-3c0-1.654 1.346-3 3-3h48c1.654 0 3 1.346 3 3v3c0 1.654-1.346 3-3 3zm-48-7c-.552 0-1 .448-1 1v3c0 .552.448 1 1 1h48c.552 0 1-.448 1-1v-3c0-.552-.448-1-1-1z"/><path d="m7.999 48.497c-.553 0-1-.447-1-1 0-3.859 3.141-7 7-7 .553 0 1 .447 1 1s-.447 1-1 1c-2.757 0-5 2.243-5 5 0 .553-.447 1-1 1z"/><path d="m14 42.506c-.553 0-1-.447-1-1s.447-1 1-1c2.758 0 5.001-2.243 5.001-5.001 0-.553.447-1 1-1s1 .447 1 1c0 3.86-3.141 7.001-7.001 7.001z"/><path d="m7.999 52.501c-.553 0-1-.447-1-1v-4.004c0-.553.447-1 1-1s1 .447 1 1v4.004c0 .553-.447 1-1 1z"/><path d="m56.002 48.497c-.553 0-1-.447-1-1 0-2.757-2.243-5-5-5-.553 0-1-.447-1-1s.447-1 1-1c3.859 0 7 3.141 7 7 0 .553-.447 1-1 1z"/><path d="m50.001 42.506c-3.86 0-7.001-3.141-7.001-7.001 0-.553.447-1 1-1s1 .447 1 1c0 2.758 2.243 5.001 5.001 5.001.553 0 1 .447 1 1s-.447 1-1 1z"/><path d="m56.002 52.501c-.553 0-1-.447-1-1v-4.004c0-.553.447-1 1-1s1 .447 1 1v4.004c0 .553-.447 1-1 1z"/><path d="m44 36.493c-.553 0-1-.447-1-1 0-6.065-4.935-11-11-11-6.064 0-10.999 4.935-10.999 11 0 .553-.447 1-1 1s-1-.447-1-1c0-7.168 5.831-13 12.999-13s13 5.832 13 13c0 .553-.447 1-1 1z"/><path d="m32.03 31.499c-.553 0-1.005-.447-1.005-1s.442-1 .994-1h.011c.552 0 1 .447 1 1s-.448 1-1 1z"/><path d="m29.531 32.169c-.553 0-1.005-.447-1.005-1s.442-1 .994-1h.011c.552 0 1 .447 1 1s-.448 1-1 1z"/><path d="m27.702 33.998c-.553 0-1.005-.447-1.005-1s.442-1 .994-1h.011c.552 0 1 .447 1 1s-.448 1-1 1z"/><path d="m27.032 36.497c-.553 0-1.005-.447-1.005-1s.442-1 .994-1h.011c.552 0 1 .447 1 1s-.448 1-1 1z"/><path d="m27.702 38.996c-.553 0-1.005-.447-1.005-1s.442-1 .994-1h.011c.552 0 1 .447 1 1s-.448 1-1 1z"/><path d="m29.532 40.825c-.553 0-1.005-.447-1.005-1s.442-1 .994-1h.011c.552 0 1 .447 1 1s-.448 1-1 1z"/><path d="m32.031 41.494c-.553 0-1.005-.447-1.005-1s.442-1 .994-1h.011c.552 0 1 .447 1 1s-.448 1-1 1z"/><path d="m34.53 40.824c-.553 0-1.005-.447-1.005-1s.442-1 .994-1h.011c.552 0 1 .447 1 1s-.448 1-1 1z"/><path d="m31.99 44.498c-1.57 0-3.124-.417-4.491-1.206-4.297-2.481-5.774-7.996-3.295-12.293 1.604-2.776 4.596-4.501 7.808-4.501 1.57 0 3.122.417 4.488 1.205 2.081 1.202 3.57 3.144 4.192 5.466s.303 4.748-.899 6.828c-1.603 2.776-4.592 4.501-7.803 4.501zm.022-16c-2.5 0-4.827 1.342-6.075 3.501-1.929 3.342-.779 7.631 2.563 9.561 1.063.614 2.271.938 3.491.938 2.498 0 4.824-1.342 6.07-3.501.936-1.618 1.184-3.504.7-5.311s-1.643-3.316-3.261-4.251c-1.062-.613-2.269-.937-3.488-.937z"/><path d="m34.528 32.167c-.553 0-1.005-.447-1.005-1s.442-1 .994-1h.011c.552 0 1 .447 1 1s-.448 1-1 1z"/></svg>